PathFileType	4	(X/Y/Z)	c:/Users/goper/Files/vsCode/490R/osim_files/C15/C15_Static02.trc
DataRate	CameraRate	NumFrames	NumMarkers	Units                	OrigDataRate	OrigDataStartFrame	OrigNumFrames
250.00	250.00	9	36	mm	250.0	383	1020
                Frame#	Time	LPSIS			LASIS			LTH1			LTH2			LTH3			LTH4			LLFE			LMFE			LSH1			LSH2			LSH3			LSH4			LLMAL			LMMAL			LCAL			LMTP5			LTOE			LMTP1			RPSIS			RASIS			RTH1			RTH2			RTH3			RTH4			RLFE			RMFE			RSH1			RSH2			RSH3			RSH4			RLMAL			RMMAL			RCAL			RMTP1			RTOE			RMTP5		
		X1	Y1	Z1	X2	Y2	Z2	X3	Y3	Z3	X4	Y4	Z4	X5	Y5	Z5	X6	Y6	Z6	X7	Y7	Z7	X8	Y8	Z8	X9	Y9	Z9	X10	Y10	Z10	X11	Y11	Z11	X12	Y12	Z12	X13	Y13	Z13	X14	Y14	Z14	X15	Y15	Z15	X16	Y16	Z16	X17	Y17	Z17	X18	Y18	Z18	X19	Y19	Z19	X20	Y20	Z20	X21	Y21	Z21	X22	Y22	Z22	X23	Y23	Z23	X24	Y24	Z24	X25	Y25	Z25	X26	Y26	Z26	X27	Y27	Z27	X28	Y28	Z28	X29	Y29	Z29	X30	Y30	Z30	X31	Y31	Z31	X32	Y32	Z32	X33	Y33	Z33	X34	Y34	Z34	X35	Y35	Z35	X36	Y36	Z36

383	1.52800	-435.71701	1029.64368	405.25717	-273.11133	1009.25916	331.64349	-360.20090	634.93469	252.84215	-363.91064	587.47302	266.04666	-308.25284	638.94006	253.62204	-309.49268	593.61212	259.95209	-343.52615	500.91214	277.72556	-335.78137	476.79352	396.51840	-412.51126	396.14755	260.50122	-415.51669	353.48792	251.50227	-350.74591	388.99506	256.99203	-361.18051	346.01746	248.00655	-403.13846	84.89117	288.54135	-382.95322	103.90792	379.24173	-463.86862	57.89690	331.69540	-280.91476	35.97405	263.27750	-224.66289	59.09898	326.32083	-260.44916	38.98167	381.52017	-427.24011	1030.54248	525.02307	-269.50674	1006.20703	582.11963	-341.63513	642.84479	653.87592	-341.69559	595.96564	648.60822	-282.02237	637.86322	640.77661	-290.30215	591.77820	640.22211	-337.24829	498.00778	626.10510	-354.05539	474.29834	510.07480	-425.91998	399.34509	651.17487	-427.43741	356.15387	658.08099	-364.51617	388.75455	652.81598	-375.87085	348.56793	660.59326	-416.75464	84.30650	617.07806	-387.59894	103.07384	529.42932	-477.12552	58.30376	572.60956	-273.53302	37.77617	535.00317	-239.31699	55.80791	588.47803	-299.57352	30.93555	654.03760
384	1.53200	-435.72025	1029.64429	405.22208	-273.08273	1009.25854	331.61777	-360.18158	634.91278	252.85498	-363.92865	587.42505	266.09805	-308.23383	638.93860	253.62918	-309.42221	593.62140	259.95020	-343.51868	500.90390	277.71927	-335.78598	476.80713	396.47995	-412.49924	396.11288	260.49872	-415.50143	353.50098	251.47551	-350.76559	389.00064	256.99051	-361.15536	346.01495	248.00961	-403.12317	84.87546	288.53680	-382.96289	103.91524	379.24020	-463.88159	57.93382	331.65497	-280.91608	35.96880	263.28070	-224.66408	59.08782	326.31964	-260.46191	38.97272	381.52545	-427.22565	1030.55237	524.98798	-269.47833	1006.21399	582.11810	-341.68741	642.81378	653.86145	-341.70761	595.99725	648.59546	-282.01208	637.87518	640.77393	-290.29031	591.78204	640.21698	-337.27991	498.02649	626.08960	-354.03931	474.27811	510.09442	-425.92883	399.34991	651.16791	-427.46094	356.21246	658.04395	-364.18176	388.90155	652.89435	-375.88153	348.56097	660.57135	-416.80801	84.28005	617.05377	-387.59927	103.05560	529.44250	-477.17310	58.31717	572.60864	-273.57938	37.75648	534.99597	-239.32738	55.80189	588.48053	-299.58282	30.91951	654.03149
385	1.53600	-435.72403	1029.68274	405.19351	-273.03436	1009.23932	331.62958	-360.12744	634.90283	252.85997	-363.89114	587.44336	266.08939	-308.18524	638.92322	253.61978	-309.43268	593.61432	259.94919	-343.49826	500.89047	277.71115	-335.79086	476.79385	396.49014	-412.48770	395.90167	260.70837	-415.48135	353.51099	251.46399	-350.76984	388.99841	257.01993	-361.13470	345.99335	248.00937	-403.13882	84.84357	288.54526	-382.97800	103.90168	379.22220	-463.89313	57.99566	331.57068	-280.91821	35.94614	263.29568	-224.66916	59.07105	326.33484	-260.47211	38.96690	381.54520	-427.24393	1030.57874	524.96899	-269.44427	1006.20367	582.10938	-341.66010	642.78497	653.85828	-341.71863	596.01105	648.60992	-281.96652	637.87146	640.79437	-290.27319	591.77216	640.21130	-337.24368	498.03833	626.08435	-354.00891	474.26743	510.08093	-425.92508	399.34409	651.16058	-427.46515	356.20877	658.04565	-364.19571	388.89719	652.89587	-375.87549	348.55728	660.56805	-416.83655	84.27843	617.04224	-387.57651	103.05462	529.44501	-477.16907	58.31232	572.59528	-273.53094	37.77564	535.01947	-239.36421	55.78983	588.49493	-299.56711	30.93352	654.02863
386	1.54000	-435.70773	1029.72180	405.15475	-273.00473	1009.24225	331.63907	-360.13025	634.91089	252.85594	-363.89664	587.44293	266.10962	-308.13855	638.92249	253.61414	-309.40997	593.59607	259.96466	-343.44681	500.87695	277.70840	-335.73318	476.83148	396.45221	-412.48370	395.93735	260.71127	-415.41785	353.53644	251.42421	-350.71317	389.03455	256.99185	-361.11041	346.01758	248.00574	-403.11203	84.85880	288.55362	-382.95715	103.92095	379.21567	-463.92542	58.02296	331.56451	-280.89722	35.96004	263.28787	-224.65962	59.06684	326.32770	-260.47656	38.95781	381.52826	-427.27798	1030.64868	524.92657	-269.39618	1006.20190	582.10663	-341.63403	642.79980	653.84924	-341.70956	596.01605	648.56189	-281.91782	637.87476	640.76990	-290.24490	591.76855	640.19086	-337.20377	498.03876	626.05109	-353.99884	474.27768	510.09308	-425.90497	399.33252	651.14130	-427.48309	356.23190	658.00348	-364.11307	388.92117	652.85730	-375.84335	348.58725	660.54895	-416.80896	84.29895	617.01495	-387.56735	103.07012	529.44507	-477.16772	58.32614	572.58093	-273.63379	37.58052	534.92755	-239.33516	55.79612	588.46844	-299.55887	30.92071	654.01068
387	1.54400	-435.68964	1029.74658	405.14240	-272.93433	1009.23193	331.62650	-360.10355	634.91772	252.85640	-363.88785	587.43304	266.13556	-308.10095	638.92810	253.61118	-309.37503	593.59210	259.94656	-343.43170	500.87714	277.69788	-335.68307	476.82962	396.43018	-412.47894	395.92685	260.72211	-415.40588	353.55170	251.44171	-350.69931	389.01126	256.98419	-361.06772	346.01367	247.99977	-403.07657	84.85476	288.54877	-382.89679	103.90871	379.20453	-463.91687	58.03188	331.53036	-280.85666	35.95461	263.28278	-224.61299	59.08246	326.32855	-260.43518	38.94371	381.53217	-427.21289	1030.66333	524.90521	-269.32974	1006.18872	582.10626	-341.45004	642.80078	653.87396	-341.68951	595.99072	648.54175	-281.87805	637.84857	640.75348	-290.16388	591.77222	640.17041	-337.16843	498.01169	626.04120	-353.95584	474.25769	510.07935	-425.84583	399.32721	651.14813	-427.41232	356.22424	658.03101	-364.03766	388.93173	652.84216	-375.79025	348.57303	660.54547	-416.73904	84.26841	617.00616	-387.56027	103.06747	529.44824	-477.12967	58.33474	572.58997	-273.60052	37.57765	534.94000	-239.28619	55.79258	588.45233	-299.53583	30.92524	654.00372
388	1.54800	-435.62582	1029.74500	405.12689	-272.90561	1009.22296	331.63983	-360.08893	634.92517	252.85461	-363.86813	587.43842	266.08310	-308.06079	638.92096	253.61000	-309.37616	593.55817	259.95151	-343.41534	500.88974	277.67664	-335.64279	476.81058	396.45691	-412.48038	395.92621	260.72247	-415.36182	353.58014	251.41185	-350.70499	389.00574	257.00687	-361.06323	346.00476	247.99876	-403.06177	84.86359	288.53598	-382.87378	103.88383	379.21356	-463.93506	58.02907	331.54214	-280.86105	35.94175	263.29916	-224.59613	59.07920	326.34320	-260.56302	38.80017	381.50119	-427.17325	1030.69531	524.88403	-269.31299	1006.16559	582.10632	-341.49637	642.74622	653.84052	-341.57678	595.97131	648.58405	-281.84409	637.83490	640.75653	-290.13339	591.76276	640.18335	-337.11621	497.97003	626.00293	-353.94455	474.25620	510.06226	-425.80569	399.30939	651.14380	-427.36166	356.21320	658.06335	-364.07544	388.90619	652.87463	-375.76923	348.56116	660.55322	-416.71326	84.24885	617.01019	-387.54877	103.04697	529.44318	-477.08392	58.32483	572.58112	-273.45227	37.76668	535.02002	-239.27205	55.78577	588.47577	-299.50659	30.90454	654.01056
389	1.55200	-435.57843	1029.73401	405.12662	-272.88370	1009.19733	331.61932	-360.01672	634.92816	252.83266	-363.85074	587.42224	266.07666	-308.00916	638.92316	253.59634	-309.35529	593.54730	259.95959	-343.38876	500.87177	277.67603	-335.60815	476.78793	396.45871	-412.45200	395.94501	260.70758	-415.35785	353.55521	251.42896	-350.67432	388.99268	256.99878	-361.02234	346.01584	247.99294	-403.07404	84.86442	288.53360	-382.84338	103.86434	379.21570	-463.90244	58.00806	331.57346	-280.85760	35.92611	263.28836	-224.59129	59.05863	326.33911	-260.39944	38.92350	381.54010	-427.08826	1030.67761	524.86798	-269.28513	1006.15002	582.09387	-341.48877	642.71851	653.83813	-341.59311	595.92413	648.56262	-281.85403	637.79840	640.74951	-290.09116	591.74445	640.17578	-337.10608	497.95389	626.02423	-353.94235	474.27933	510.05588	-425.78799	399.30051	651.15027	-427.32596	356.19330	658.05280	-364.06201	388.86685	652.85553	-375.75671	348.54498	660.54974	-416.72900	84.19434	616.99835	-387.55118	103.05802	529.44171	-477.08075	58.29956	572.59210	-273.44070	37.76386	535.03082	-239.25253	55.76577	588.48004	-299.50726	30.88916	654.01245
390	1.55600	-435.49805	1029.68835	405.12747	-272.81137	1009.21460	331.58167	-360.02576	634.94189	252.79414	-363.82037	587.45343	266.05508	-308.00882	638.90350	253.57796	-309.58670	593.52350	260.09305	-343.40195	500.88342	277.65741	-335.57141	476.75208	396.43964	-412.44229	395.97568	260.68375	-415.34644	353.53690	251.41275	-350.64975	389.00171	256.97153	-361.03259	345.99664	247.98438	-403.08939	84.87327	288.52921	-382.91089	103.83992	379.22296	-463.89062	57.94948	331.60959	-280.94525	35.78576	263.37323	-224.59442	59.06636	326.33963	-260.41821	38.90092	381.53879	-427.00540	1030.64465	524.86603	-269.29810	1006.11627	582.08746	-341.46866	642.71100	653.84033	-341.54999	595.85779	648.54327	-281.84457	637.78644	640.74744	-290.11703	591.71082	640.17480	-337.09125	497.91891	626.06219	-353.93863	474.24683	510.03046	-425.77100	399.27029	651.16193	-427.33325	356.17453	658.07489	-364.11639	388.80029	652.84869	-375.76434	348.51053	660.55560	-416.74783	84.15237	616.99316	-387.54178	103.05224	529.43188	-477.08032	58.27742	572.60474	-273.46582	37.74666	535.01807	-239.28908	55.73390	588.48596	-299.52567	30.85151	654.01392
391	1.56000	-435.45169	1029.65588	405.13632	-272.82333	1009.20007	331.60437	-360.03268	634.93152	252.80217	-363.78638	587.47284	265.99884	-307.98792	638.90417	253.58006	-309.55420	593.52460	260.09656	-343.38916	500.87143	277.66516	-335.59491	476.72684	396.47253	-412.29376	396.25238	260.41400	-415.34570	353.50601	251.44090	-350.66751	389.00690	256.98563	-361.03534	345.99747	247.97763	-403.10413	84.86471	288.52625	-382.89340	103.80466	379.23563	-463.90079	57.90937	331.65628	-280.95306	35.77030	263.38156	-224.61021	59.04542	326.35028	-260.60599	38.77587	381.49890	-426.97278	1030.59167	524.86597	-269.29953	1006.10541	582.08917	-341.41974	642.72089	653.85266	-341.55392	595.85199	648.57397	-281.85480	637.74500	640.76697	-290.13437	591.68201	640.17084	-337.10931	497.85120	626.06555	-353.93689	474.23489	510.01331	-425.76160	399.26459	651.15283	-427.33441	356.14297	658.08899	-364.14432	388.75946	652.87970	-375.79282	348.48111	660.58191	-416.72751	84.15395	617.02576	-387.56360	103.04863	529.43677	-477.06735	58.22772	572.60791	-273.48273	37.72260	535.03973	-239.33876	55.70436	588.52032	-299.54584	30.82192	654.04004
